# xmcd CD database file
#
# Track frame offsets:
#	150
#	15950
#	27645
#	41890
#	53872
#	73475
#	83010
#	94205
#	109922
#	118697
#	130352
#	148515
#	161187
#	171197
#	182897
#	192792
#	202462
#	226017
#	238090
#	248352
#	258805
#	273512
#	283907
#	294690
#
# Disc length: 4210 seconds
#
# Revision: 0
# Processed by: cddbd v1.5.1PL0 Copyright (c) Steve Scherf et al.
# Submitted via: CDex 1.51
#
DISCID=71107018
DTITLE=Country Jiriho Brabce - Country Jiriho Brabce
DYEAR=1996
DGENRE=Country
TTITLE0=Blizzard
TTITLE1=Sea of Heartbreak
TTITLE2=Èekej tise
TTITLE3=Sve banjo odkazuji v dal
TTITLE4=Po pulnoci
TTITLE5=Drahy muj
TTITLE6=Operation X
TTITLE7=rezava mriz
TTITLE8=Big City
TTITLE9=Silver Rails
TTITLE10=Sto let
TTITLE11=Vem na to jed
TTITLE12=Pulnoc je obdobi zle
TTITLE13=Je to zle
TTITLE14=To se budem prima mit
TTITLE15=Fireball Mail
TTITLE16=Zatim co ty spis
TTITLE17=Tobe nalezi cas
TTITLE18=Express
TTITLE19=Jak muzes
TTITLE20=Vinen
TTITLE21=Vlak do detsvi
TTITLE22=Open Up Your Heart
TTITLE23=Shane
EXTD=YEAR: 1996
EXTT0=
EXTT1=
EXTT2=
EXTT3=
EXTT4=
EXTT5=
EXTT6=
EXTT7=
EXTT8=
EXTT9=
EXTT10=
EXTT11=
EXTT12=
EXTT13=
EXTT14=
EXTT15=
EXTT16=
EXTT17=
EXTT18=
EXTT19=
EXTT20=
EXTT21=
EXTT22=
EXTT23=
PLAYORDER=
